<svg xmlns="http://www.w3.org/2000/svg" viewBox="0 0 458.18 458.18"><circle cx="229.09" cy="229.09" r="229.09" style="fill:#fff"/><path d="M228.46 71.88a156.49 156.49 0 0 0-23 311.3 21 21 0 0 0 4.3.5 11.18 11.18 0 0 0 11.3-11.1v-77.3l-66.6-66.5 74.8-74.8 74.8 74.8-66.43 66.4.3-.3v76.6c0 8.4 5 13.4 12.1 11.8a156.46 156.46 0 0 0-21.6-311.4Zm33.6 283.9v-49.3l-.4-.2 76.7-77.1-109.73-109.45-109.7 109.6 78.5 78.5v47.8a132.18 132.18 0 1 1 64.6.2ZM56.46 127.28c-3.4-2.1-5.5-3.4-8.2-4.9.5-.6 1-1.3 1.7-2.3s1.7-3 2.6-4.3c1.7-2.8 3.1-3.9 4.4-4.3a5.78 5.78 0 0 1 5.1.7c4.5 2.9 4.2 7.1 1.4 11.5l-1 1.5c2.9 1.9 5.8 3.7 8.9 5.4a17.19 17.19 0 0 0-1.7 2.3 20.13 20.13 0 0 0-1.4 2.5c-2.4-1.8-4.7-3.4-7.9-5.4Zm-2.9-9.7a7.46 7.46 0 0 0-.7 1.2l8.1 5.3a4.56 4.56 0 0 0-.2-6.4 3.6 3.6 0 0 0-1.2-.8c-3-1.9-4.8-1.1-5.9.6h-.1ZM90.06 105.08a20.53 20.53 0 0 0-2 2.3c-.6.7-1.1 1.6-1.7 2.4-2.3-.9-4.7-1.7-7-2.5-.9 1.1-1.9 2.2-2.8 3.4l-2.2 2.9a74 74 0 0 0 4.1 6.2 11.41 11.41 0 0 0-1.1 1.1 9.88 9.88 0 0 0-.9 1.5c-1.9-3.7-8.4-15.4-12.7-22.7a9 9 0 0 0 1-.9 4.13 4.13 0 0 0 .7-1.1c7.8 2.5 18.5 5.9 24.6 7.4Zm-12.8 1.5c-2.9-1-5.6-1.9-8.4-2.7 1.4 2.6 2.9 5.1 4.4 7.7ZM81.16 88.28c-.7-.7-1.5-1.4-2.2-2-.9 1-2.8 3.4-4.1 4.9l-.9-1.2a4.7 4.7 0 0 0-1.2-.9c2.3-2.2 3.4-3.4 6.4-6.3s4-4.2 6-6.4a10.59 10.59 0 0 0 1 1.2 4.7 4.7 0 0 0 1.2.9 44.87 44.87 0 0 0-4.6 4.1 20.79 20.79 0 0 0 2.1 2.1l6.2 6c2.8 2.7 4.7 4.5 7.1 6.5-.6.5-1.3 1.1-2.1 1.9a23.12 23.12 0 0 0-1.8 2.1c-2-2.2-3.9-4.2-6.7-6.9ZM102.26 78.48l-.3.2.9 1.1c2.4 3 4.2 5 6.3 7.2a19.52 19.52 0 0 0-2.3 1.7c-.9.7-1.5 1.4-2.1 1.9-1.8-2.4-3.4-4.6-5.9-7.6l-3-3.6c-2.4-3-4.2-5-6.3-7.2a19.52 19.52 0 0 0 2.3-1.7c1-.8 2-1.8 3.8-3.4 2.7-2.2 3.9-2.8 5.3-2.9a5.21 5.21 0 0 1 4.6 2.1 6.25 6.25 0 0 1 0 8.3c4.2 1.6 8.8 3 13.2 4.4-.9.6-1.7 1.2-2.5 1.8a22.91 22.91 0 0 0-2.3 2.1Zm-7.1-8.3c1.9 2.5 3.9 4.9 5.9 7.3l.6-.4a4.22 4.22 0 0 0 1.1-6 4.35 4.35 0 0 0-.6-.7c-2.6-3.2-4.1-2.5-7 0ZM113.76 65.48a90 90 0 0 0-5.6-7.8c.7-.4 1.5-.8 2.4-1.4a24.56 24.56 0 0 0 2.2-1.7c1.6 2.6 3 4.8 5.2 8.1l2.7 3.9a89 89 0 0 0 5.7 7.8 18.84 18.84 0 0 0-2.4 1.4c-1 .7-1.6 1.3-2.2 1.7-1.5-2.6-3-4.9-5.2-8.1-.1-.1-2.8-3.9-2.8-3.9ZM126.26 55.38c1.8 5 4 9.8 6.1 14.6a4 4 0 0 0-1.5.6c-.5.3-.9.6-1.4.9-2.4-7.7-5.1-15.3-8-22.8a5 5 0 0 0 1.3-.5 8.34 8.34 0 0 0 1.2-.8c4.8 3.7 10.3 7.8 14.8 10.9 0-5.8-.2-12.4-.6-18.4a7.84 7.84 0 0 0 1.4-.5 5 5 0 0 0 1.2-.8c4.5 6.7 10.7 15.8 13.8 19.7a15.08 15.08 0 0 0-2.6 1.2 12 12 0 0 0-2.4 1.5c-2.4-4.2-5.7-9.1-8.7-13.4.2 5.9.4 11.8.7 17.8a1.42 1.42 0 0 0-.6.2l-.5.3c-4.6-3.4-9.3-6.9-14-10.4ZM161.26 30.18c6.9-2.4 13.7-.4 16.4 7.5a12.63 12.63 0 0 1-8.1 15.9c-.2 0-.3.1-.5.1-6.7 2.3-13.7.7-16.4-7.5a12.48 12.48 0 0 1 7.8-15.8 1.88 1.88 0 0 0 .8-.2Zm.6 1.9c-4.5 1.5-5.6 6.9-3.7 12.5 2.3 6.9 6.4 8.3 10.1 7s6.3-5.8 3.8-12.9c-1.9-5.6-6-8.1-10.2-6.6ZM181.36 24.58a4.3 4.3 0 0 0 1.6 0 8.33 8.33 0 0 0 1.5-.4c5.9 4.5 11.7 9 17.7 13.4-1-5.4-2.7-14.7-3.2-16.2a7.72 7.72 0 0 0 1.5-.2 8.33 8.33 0 0 0 1.5-.4c1.2 10.1 2.1 14.5 3.7 23.5a3.3 3.3 0 0 0-1.4 0 6.47 6.47 0 0 0-1.3.4c-5.6-4.5-11.6-9-17.8-13.6.4 2.6.9 5.4 1.4 8 1 5.4 1.4 7.3 1.8 8.6h-1.6a8.8 8.8 0 0 0-1.5.5c0-1-1.1-9.9-2.3-16.8-.7-3.1-1.3-5.2-1.6-6.8ZM211.16 29.78c-.3-3.9-.5-6.5-1-9.5h2.9a17 17 0 0 0 2.8-.4 83.73 83.73 0 0 0 .4 9.6l.3 4.7c.3 3.9.6 6.5 1 9.5a14 14 0 0 0-2.9 0 18.78 18.78 0 0 0-2.8.4c0-3.1-.2-5.7-.4-9.6ZM235.86 19.18c7.3.2 13 4.5 12.7 12.8a12.54 12.54 0 0 1-13.1 12h-.6c-7.3-.2-13-4.1-12.7-12.8a12.43 12.43 0 0 1 12.9-12 1.1 1.1 0 0 1 .8 0Zm-.2 1.9c-4.7 0-7.6 4.5-7.9 10.5-.2 7.3 3.1 10.1 6.9 10.1s7.9-3.4 8.2-10.7c.2-6-2.8-9.8-7.2-10.1ZM268.56 31.28c-2 4.9-3.4 10.1-5.1 14.9l-1.5-.6a8.75 8.75 0 0 0-1.6-.2c3.4-7.4 6.3-14.8 9.2-22.3a6.94 6.94 0 0 0 1.3.5h1.4c1.1 6 2.5 12.6 3.8 18 3.9-4.3 8.1-9.4 11.8-14.1l1.3.6h1.4c-1 7.9-2.5 19-2.9 23.9a25.43 25.43 0 0 0-5.5-1.3c.9-4.7 1.7-10.6 2.5-15.9-3.8 4.5-7.6 9.1-11.3 13.8a1.42 1.42 0 0 0-.6-.2h-.6c-1.1-5.6-2.3-11.4-3.5-17.1ZM294.86 45.78c1.4-3.4 2.2-5.1 3.2-7.4 1.4-3.4 2.3-5.6 2.6-6.7a26.16 26.16 0 0 0 5.2 2.2 109.71 109.71 0 0 0-5.1 11c-3.4 7.8-1.6 10.1 2.6 11.7 5.1 2.1 7.8-3.4 10.3-9.2 1.2-2.9 2.3-5.9 3.4-8.9a10.93 10.93 0 0 0 1.5.8 9.83 9.83 0 0 0 1.6.5c-1 1.8-3.1 6.3-5.4 11.8-3.1 7.4-7.6 9.1-13.8 6.5-5.4-2.3-8.7-6.5-6.1-12.5ZM328.33 44.18a3.81 3.81 0 0 0 1.3.9 6.11 6.11 0 0 0 1.4.7c1.4 7.3 2.9 14.5 4.4 21.8 2.9-4.7 7.7-12.8 8.3-14.2a7.44 7.44 0 0 0 2.7 1.6c-5.7 8.3-8 12.3-12.7 20.1-.4-.3-.7-.6-1.1-.9a6.12 6.12 0 0 0-1.2-.5c-1.2-7.2-2.6-14.6-4.3-22.2-1.4 2.2-2.9 4.6-4.2 6.7a69.45 69.45 0 0 0-4.3 7.6 6.42 6.42 0 0 0-1.3-1 9.14 9.14 0 0 0-1.4-.7c.7-.8 5.7-8.2 9.4-14.2 1.6-2.7 2.5-4.5 3.4-6ZM347.53 67.73c2.4-3 4.1-5.1 5.8-7.6.6.5 1.2 1.2 2.1 1.9s2.6 1.9 4.9 3.8c6.1 5 8.7 10.4 3.4 17.1a12 12 0 0 1-16.7 2.6c-.2-.1-.3-.3-.5-.4-2.7-2.2-4.4-3.8-5.8-4.9a19.52 19.52 0 0 0-2.3-1.7c2.1-2.2 3.8-4.3 6.2-7.2l3-3.6Zm.5 7.4c-1.2 1.4-3.9 4.7-4.2 5.2.5.5 1.2 1.1 2.3 2 4 3.4 8.8 2.7 13.4-2.9 3.6-4.4 3.4-9.1-.3-12.1a19.41 19.41 0 0 0-2.9-2.1c-.4.5-3.1 3.7-4.3 5.2l-3.9 4.7ZM369.13 86.28c2.8-2.7 4.6-4.7 6.7-6.9.5.6 1.1 1.3 1.9 2.1s1.5 1.4 2.1 1.9c-2.3 2-4.2 3.8-7 6.7l-3.4 3.4c-2.8 2.7-4.6 4.7-6.7 6.9-.5-.6-1.1-1.3-1.9-2.1s-1.5-1.4-2.1-1.9c2.3-2 4.2-3.8 7-6.7ZM379.53 119.73c-.7-.9-1.2-1.7-1.8-2.4s-1.4-1.4-2-2.2c1.3-2 2.7-4.2 3.9-6.3-.9-1.2-1.8-2.3-2.8-3.4s-1.5-1.8-2.3-2.8a70.66 70.66 0 0 0-6.9 2.7c-.3-.5-.6-.9-.9-1.4a13.58 13.58 0 0 0-1.2-1.2c4.1-1.1 16.8-5 24.8-7.7a4.13 4.13 0 0 0 .7 1.1 9 9 0 0 0 1 .9c-4.3 7.3-9.9 17.1-12.5 22.7Zm1.2-12.9c1.5-2.5 3-5 4.4-7.6q-4.2 1.2-8.4 2.7ZM393.33 114.88a73.23 73.23 0 0 0 7.8-5.5c.4.7.8 1.5 1.4 2.4a27.7 27.7 0 0 0 1.7 2.3c-2.7 1.5-4.9 2.9-8.2 5l-3.9 2.6c-2.1 1.4-4.3 2.9-5.8 3.9a73.63 73.63 0 0 0 4.7 6.3c-.5.2-.9.5-1.4.7a10.63 10.63 0 0 0-1.1.9 60.48 60.48 0 0 0-3.4-5.1c-3.1-4.7-3.7-5.4-4.1-6 2.7-1.5 4.9-2.9 8.2-5l3.9-2.6ZM51.86 148.73a3.34 3.34 0 1 1-1.7-4.4h.1a3.46 3.46 0 0 1 1.6 4.4ZM43.26 179.98c-4.2-2.9-10.8-7.5-15.2-10.2a5.78 5.78 0 0 0 .6-1.7l.3-1.8c6.4 0 23.8-.6 25.3-.7-.3 1-.7 1.9-.9 2.8a23.25 23.25 0 0 0-.5 2.8h-18.4c5.2 3.4 12.8 8.6 15.7 10.4a4.92 4.92 0 0 0-.6 1.7c-.1.6-.2 1.1-.3 1.7-3.2-.2-13.8.8-18.7.9 5.3 3.4 13.4 8.3 15.9 9.6-.2.4-.4.9-.6 1.4a7.77 7.77 0 0 0-.2 1.6c-2.4-1.6-14.5-9.8-21.5-13.9.2-.6.4-1.1.6-1.7l.3-1.8c6 0 12-.4 18.2-1ZM55.16 323.58c-.8-1.6-1.5-3.4-2.3-4.9s-1.7-3.1-2.6-4.7l-1.8.9c-3.5 1.8-5.9 3.1-8.6 4.7-.3-.7-.6-1.6-1.1-2.7a12.75 12.75 0 0 0-1.5-2.5c2.9-1.2 5.3-2.4 8.8-4.2l4.3-2.1c3.6-1.8 5.9-3.1 8.6-4.7.3.7.6 1.6 1.1 2.7a12.75 12.75 0 0 0 1.5 2.5c-2.8 1.2-5.3 2.4-8.8 4.2.5 1.1 1.2 2.6 2.3 4.8s1.8 3.6 2.5 4.7c3.4-1.8 5.9-3.1 8.5-4.6.3.9.7 1.8 1.1 2.7a23.38 23.38 0 0 0 1.5 2.5c-2.9 1.2-5.3 2.4-8.9 4.2l-4.3 2.2c-3.4 1.8-5.9 3.1-8.6 4.7-.3-.9-.7-1.8-1.1-2.7a12.75 12.75 0 0 0-1.5-2.5c2.9-1.2 5.3-2.4 8.9-4.2ZM151.46 403.48a8.08 8.08 0 0 0-4.7-6.3c-3.9-2-9.6-.8-13 5.8-2.5 5-1.7 10.1 3.2 12.6a9.88 9.88 0 0 0 3.67 1.15 11.25 11.25 0 0 0 1.2-2.1 49.75 49.75 0 0 0 2.5-5.5 12.66 12.66 0 0 0 2.2 1.3 10.91 10.91 0 0 0 2.7 1.1 52.35 52.35 0 0 0-3 5.1 28.17 28.17 0 0 0-1.6 3.4 32.23 32.23 0 0 1-9.1-2.9c-7.2-3.7-10.3-10.4-7.1-16.8 4.1-8 11.7-9.1 19.1-5.4a17.64 17.64 0 0 1 6.7 5.7 21.8 21.8 0 0 0-2.5 2.8l-.4-.2ZM383.33 348.98c-3.2-2.3-5.4-3.9-8.1-5.5 1.2-1.7 2.6-3.4 3.8-5a53 53 0 0 0 4.2-6.1 5.24 5.24 0 0 0 1.1 1 6.38 6.38 0 0 0 1.4.8c-1.7 2-4.4 5.3-5.1 6.2 2 1.6 4.1 3.2 6.1 4.7 1.7-2.5 3-4.4 4.5-6.7a4.26 4.26 0 0 0 1.2 1.1 5.39 5.39 0 0 0 1.3.7c-1.7 2-3.4 4.1-5 6.3l3.6 2.7c1.2.9 2.4 1.7 3.6 2.5a59.47 59.47 0 0 0 4.4-6.7 10.59 10.59 0 0 0 1.2 1 5.67 5.67 0 0 0 1.3.8c-.8 1-1.8 2.2-3.8 4.9-1.5 2-3 4-4.3 6.1-2.4-2-4.5-3.7-7.7-6ZM207.15 423.05c.22-4.07.36-6.59.39-9.74.78.16 1.65.26 2.89.4s3.52.06 5.12.23c3.34.16 5 .87 6 1.84a5.87 5.87 0 0 1 1.86 4.91c-.4 5.45-4.31 7.23-9.61 6.87l-1.84-.16c-.28 3.52-.48 7-.49 10.61a17 17 0 0 0-2.89-.4 20.25 20.25 0 0 0-2.92 0c.44-3 .75-5.87 1-9.71Zm7.28-7.32a8.6 8.6 0 0 0-1.42 0l-.79 9.85a4.65 4.65 0 0 0 5.63-3.31 3.59 3.59 0 0 0 .13-1.46c.24-3.62-1.36-4.84-3.42-5v-.09ZM245.7 438.54a20.35 20.35 0 0 0-3.09-.08c-.94 0-2 .17-3 .22-.78-2.38-1.71-4.78-2.57-7.1-1.44 0-3-.06-4.47 0l-3.7.15a74.52 74.52 0 0 0-2.2 7.22 10 10 0 0 0-1.57-.15 9.86 9.86 0 0 0-1.76.26c1.67-3.88 6.63-16.53 9.57-24.62a8.83 8.83 0 0 0 1.35.2 4.34 4.34 0 0 0 1.32-.16c3.1 7.74 7.35 18.31 10.12 24.06Zm-9.45-9.05c-1.09-2.92-2.13-5.62-3.31-8.33-1.13 2.78-2.12 5.57-3.19 8.42ZM251.63 418.8c-.1-1-.29-2.07-.46-3-1.35.21-4.39.89-6.37 1.24l.06-1.52a4.64 4.64 0 0 0-.38-1.48c3.23-.27 4.87-.51 9.1-.88s5.85-.75 8.84-1.21a10.64 10.64 0 0 0 0 1.59 4.72 4.72 0 0 0 .37 1.48 45 45 0 0 0-6.26.29 21.1 21.1 0 0 0 .31 3l1.05 8.71c.48 3.92.83 6.56 1.44 9.68-.79 0-1.73 0-2.88.15a23 23 0 0 0-2.76.51c-.17-3-.39-5.82-.87-9.74ZM274.55 422.5l-.36.05.34 1.41c.85 3.81 1.61 6.43 2.55 9.38a19.48 19.48 0 0 0-2.86.53c-1.13.24-2 .61-2.76.8-.58-3-1.06-5.71-2-9.57l-1.15-4.62c-.86-3.81-1.61-6.44-2.55-9.38a20.9 20.9 0 0 0 2.86-.53c1.26-.29 2.62-.76 5-1.42 3.45-.81 4.81-.83 6.13-.3a5.29 5.29 0 0 1 3.27 4 6.34 6.34 0 0 1-3.69 7.58c3.13 3.33 6.71 6.66 10.11 9.89-1.09.15-2.08.35-3.08.54a24.12 24.12 0 0 0-3 .89Zm-2.8-10.77c.63 3.13 1.39 6.21 2.15 9.29l.73-.09a4.39 4.39 0 0 0 3.43-5.91c-.95-4.08-2.63-4.1-6.39-3.11ZM289.88 414.44a91.24 91.24 0 0 0-3.37-9.17c.8-.2 1.69-.38 2.73-.72a23 23 0 0 0 2.62-1.07c.87 3 1.64 5.52 2.9 9.36l1.59 4.55a89.51 89.51 0 0 0 3.46 9.2 19.87 19.87 0 0 0-2.73.72c-1.17.42-1.92.84-2.62 1.07-.76-3-1.61-5.62-2.9-9.35-.07-.13-1.68-4.59-1.68-4.59ZM303.81 408.3c1.64 5.14 3.7 10.1 5.65 15.06a4 4 0 0 0-1.54.55c-.52.29-.94.58-1.46.86-2.15-7.91-4.61-15.73-7.27-23.46a5 5 0 0 0 1.34-.46 9 9 0 0 0 1.25-.77c4.73 3.94 10.17 8.31 14.62 11.63.22-5.89.27-12.6.08-18.72a8.06 8.06 0 0 0 1.45-.45 5.18 5.18 0 0 0 1.24-.77c4.33 7 10.28 16.46 13.29 20.53a14.69 14.69 0 0 0-2.69 1.13 11.89 11.89 0 0 0-2.49 1.43c-2.28-4.36-5.45-9.46-8.34-13.94v18.11a1.42 1.42 0 0 0-.61.18l-.52.29c-4.55-3.63-9.19-7.36-13.84-11.09ZM357.03 363.07a4.57 4.57 0 0 0 1.32-1 7.71 7.71 0 0 0 1-1.26c7.64.06 15.19.18 22.85.09-4.16-3.82-11.31-10.43-12.64-11.35a8.16 8.16 0 0 0 1.11-1.09 7.71 7.71 0 0 0 1-1.26c7.23 7.57 10.69 10.64 17.57 17a3.49 3.49 0 0 0-1.15.87 6.29 6.29 0 0 0-.82 1.13c-7.39-.24-15.11-.24-23.06-.19 1.94 1.89 4.08 3.89 6.1 5.72a90 90 0 0 0 6.8 6l-1.32 1a8.57 8.57 0 0 0-.92 1.34c-.62-.82-7-7.47-12.28-12.4-2.49-2.12-4.28-3.48-5.52-4.61ZM424.29 237.66c-4 .09-6.73.14-9.83.45 0-.8.15-1.74.11-2.91s-.22-3.3-.25-6.38c-.1-8.11 2.44-13.74 11.23-14a12.31 12.31 0 0 1 13.08 11.45c.06.22 0 .43 0 .66 0 3.58-.09 6 0 7.81a19.44 19.44 0 0 0 .19 2.94c-3.13-.2-5.91-.15-9.78-.12h-4.82Zm5.5-5.3c1.9 0 6.29 0 6.88-.13.06-.72.07-1.67.06-3.13 0-5.41-3.7-8.73-11.16-8.65-5.85.08-9.42 3.35-9.34 8.25a20.21 20.21 0 0 0 .27 3.67h13.23ZM75.44 354.86l-.21-.31-1.11.91c-3 2.43-5.08 4.26-7.31 6.39a19.39 19.39 0 0 0-1.73-2.34c-.71-.91-1.41-1.52-1.92-2.13 2.44-1.82 4.67-3.45 7.72-6l3.65-3c3-2.43 5.08-4.25 7.31-6.38a21.24 21.24 0 0 0 1.72 2.33c.81 1 1.83 2 3.45 3.86 2.23 2.74 2.84 4 2.94 5.38a5.31 5.31 0 0 1-2.14 4.67 6.36 6.36 0 0 1-8.42 0c-1.63 4.26-3.05 8.92-4.48 13.38-.61-.91-1.21-1.72-1.82-2.53a22.58 22.58 0 0 0-2.13-2.36Zm8.42-7.2c-2.53 1.93-5 3.95-7.41 6l.41.61a4.28 4.28 0 0 0 6.08 1.12 3.69 3.69 0 0 0 .69-.66c3.25-2.63 2.54-4.15 0-7.1ZM30.86 236.05v-.37l-1.46.06c-4 .1-6.73.34-9.84.7a20.78 20.78 0 0 0 0-2.95c0-1.18-.22-2.11-.26-2.91 3.1 0 5.9.07 9.92-.12l4.83-.23c4-.11 6.72-.34 9.84-.7a19.4 19.4 0 0 0 0 2.95c0 1.32.23 2.76.43 5.24.13 3.59-.13 4.95-.92 6.16a5.36 5.36 0 0 1-4.58 2.48 6.47 6.47 0 0 1-6.83-5.17c-3.93 2.46-7.94 5.37-11.83 8.12.07-1.12.07-2.15.08-3.18a24.57 24.57 0 0 0-.3-3.2Zm11.24-.67c-3.24 0-6.46.16-9.67.31v.74a4.37 4.37 0 0 0 4.2 4.64 4.65 4.65 0 0 0 1-.06c4.25-.15 4.61-1.82 4.35-5.76ZM120.7 408.96a20.54 20.54 0 0 0-2.48-1.86c-.75-.56-1.7-1-2.56-1.54.74-2.4 1.38-4.89 2-7.28-1.18-.83-2.36-1.76-3.65-2.58l-3.1-2a75 75 0 0 0-6 4.61 10.83 10.83 0 0 0-1.2-1 9.24 9.24 0 0 0-1.58-.8c3.6-2.2 15-9.65 22-14.55a10.81 10.81 0 0 0 1 .95 4 4 0 0 0 1.16.62c-1.88 8.05-4.53 19.14-5.59 25.43Zm-2.47-12.86c.79-3 1.51-5.81 2.11-8.7-2.53 1.61-5 3.31-7.47 5ZM104.15 373.49c.67-.75 1.33-1.61 1.9-2.35-1.07-.86-3.62-2.64-5.22-3.87l1.16-1a4.85 4.85 0 0 0 .84-1.28c2.37 2.2 3.66 3.25 6.79 6.12s4.5 3.8 6.86 5.7a9.6 9.6 0 0 0-1.16 1.08 4.85 4.85 0 0 0-.84 1.28 45.18 45.18 0 0 0-4.44-4.42 20.16 20.16 0 0 0-2 2.26l-5.72 6.72c-2.57 3-4.28 5.05-6.16 7.6-.55-.57-1.2-1.25-2.06-2a25.12 25.12 0 0 0-2.24-1.7c2.11-2.16 4-4.22 6.59-7.22ZM355.15 378.17a94 94 0 0 0-6.64-7.17c.66-.49 1.41-1 2.25-1.71a25 25 0 0 0 2-2c1.95 2.43 3.64 4.47 6.27 7.53l3.22 3.59a89.41 89.41 0 0 0 6.74 7.16 18.54 18.54 0 0 0-2.25 1.72c-.92.83-1.45 1.51-2 2-1.84-2.44-3.64-4.57-6.27-7.52-.11-.09-3.31-3.59-3.31-3.59ZM423.33 209.21a92 92 0 0 0-9.69 1.28c0-.82 0-1.73-.1-2.82a25.89 25.89 0 0 0-.47-2.79c3.1-.19 5.74-.39 9.76-.79l4.79-.55a87.68 87.68 0 0 0 9.73-1.38 18.93 18.93 0 0 0 .11 2.83c.15 1.23.4 2.06.47 2.79-3.05.1-5.84.34-9.76.78-.14 0-4.84.65-4.84.65ZM89.32 365.19a92.5 92.5 0 0 0 6.79-7c.53.63 1.07 1.36 1.84 2.15a24.55 24.55 0 0 0 2.1 1.89c-2.32 2.08-4.26 3.88-7.17 6.68l-3.41 3.41a89.8 89.8 0 0 0-6.78 7.12 19.18 19.18 0 0 0-1.83-2.15c-.89-.87-1.6-1.37-2.11-1.89 2.34-2 4.37-3.9 7.17-6.68.08-.12 3.4-3.51 3.4-3.51ZM399.79 321.44c4.52 3 9.24 5.52 13.87 8.14a4.09 4.09 0 0 0-.85 1.41c-.22.55-.36 1-.59 1.58-6.65-4.79-13.49-9.32-20.42-13.64a5.79 5.79 0 0 0 .75-1.2 8.71 8.71 0 0 0 .48-1.39c6.17.08 13.14.05 18.69-.18-3.54-4.71-7.73-9.95-11.72-14.58a9 9 0 0 0 .83-1.27 5.06 5.06 0 0 0 .49-1.38c7.75 2.7 18.34 6.31 23.24 7.59a15.91 15.91 0 0 0-1.38 2.56 12.39 12.39 0 0 0-1 2.68c-4.52-1.94-10.19-3.91-15.26-5.58 3.77 4.68 7.53 9.35 11.44 14.05a1.42 1.42 0 0 0-.36.52l-.23.55c-5.81.05-11.77.07-17.73.1ZM334.22 381.24c6-4.39 13.14-4.5 18.12 2.33a12.81 12.81 0 0 1-3.06 17.82c-.2.06-.27.18-.46.24-5.79 4.24-13 4.79-18.12-2.33a12.65 12.65 0 0 1 2.81-17.63 1.82 1.82 0 0 0 .71-.43Zm1.15 1.66c-3.9 2.8-3.35 8.35.17 13.2 4.3 6 8.69 6.11 11.88 3.74s4.35-7.5-.2-13.62c-3.52-4.85-8.23-6-11.85-3.32ZM406.71 280.66c2.21-7.06 7.94-11.38 16-8.81a12.8 12.8 0 0 1 8 16.19c-.12.17-.1.31-.22.47-2.18 6.84-7.7 11.57-16 8.81a12.63 12.63 0 0 1-8.14-15.88 2 2 0 0 0 .36-.78Zm1.9.66c-1.49 4.57 2.23 8.73 7.94 10.56 7 2.3 10.61-.19 11.79-4s-.91-8.62-8.2-10.88c-5.7-1.83-10.21 0-11.53 4.31ZM20.16 209.33c1-7.33 6-12.53 14.33-11.32a12.8 12.8 0 0 1 10.6 14.64c-.09.19-.05.32-.14.5-1 7.1-5.69 12.68-14.34 11.33a12.65 12.65 0 0 1-10.64-14.33 1.87 1.87 0 0 0 .19-.82Zm2 .34c-.73 4.75 3.64 8.24 9.56 9.11 7.29 1.11 10.44-1.94 11-5.88s-2.32-8.35-9.88-9.38c-5.93-.87-10.07 1.67-10.66 6.15ZM411.19 264.29a4.39 4.39 0 0 0 .51-1.57 9.25 9.25 0 0 0 .09-1.59c6.28-4.35 12.53-8.59 18.74-13.07-5.6-.73-15.25-2-16.87-2a7.76 7.76 0 0 0 .28-1.54 8.35 8.35 0 0 0 .08-1.59c10.27 2 14.86 2.55 24.18 3.85a3.22 3.22 0 0 0-.44 1.37 7.21 7.21 0 0 0 0 1.4c-6.18 4.05-12.49 8.49-19 13.1 2.67.43 5.57.83 8.28 1.17a90 90 0 0 0 9 1l-.51 1.57a8.89 8.89 0 0 0 0 1.63c-1-.32-10-2.08-17.17-3.09-3.26-.31-5.51-.39-7.17-.6ZM38.34 271.07c3.8-1.08 6.48-1.83 9.4-2.91.21.78.29 1.73.63 2.85s1 3.15 1.83 6.11c2.12 7.84 1.07 13.92-7.37 16.36a12.32 12.32 0 0 1-15.55-7.75c-.11-.2-.07-.43-.18-.63-.95-3.46-1.41-5.82-1.93-7.58a20.19 20.19 0 0 0-.91-2.79c3.07-.59 5.75-1.34 9.5-2.33l4.66-1.22Zm-4 6.49c-1.85.46-6.08 1.61-6.63 1.85.12.72.35 1.64.73 3.05 1.32 5.24 5.76 7.52 13 5.58 5.65-1.53 8.29-5.59 7-10.32a19.6 19.6 0 0 0-1.17-3.49c-.64.18-4.81 1.25-6.71 1.79l-6.08 1.6ZM431.53 174.35a20.76 20.76 0 0 0 .51 3.06c.17.92.55 1.89.79 2.88-2.19 1.22-4.36 2.59-6.48 3.87.29 1.42.5 2.91.87 4.39l.85 3.6a73.13 73.13 0 0 0 7.51.78 10.73 10.73 0 0 0 .15 1.57 9.59 9.59 0 0 0 .6 1.68c-4.13-.9-17.5-3.35-26-4.68a8.53 8.53 0 0 0-.06-1.37 4 4 0 0 0-.41-1.25c6.99-4.51 16.56-10.71 21.67-14.53Zm-7.08 11c-2.65 1.63-5.1 3.17-7.53 4.85 2.94.58 5.87 1 8.87 1.51ZM416.03 172.86a72.14 72.14 0 0 0-9 3.38c-.22-.79-.4-1.67-.76-2.7s-.74-2-1.07-2.67c3-.78 5.51-1.58 9.26-2.79l4.46-1.54c2.4-.83 4.93-1.73 6.64-2.33a73.46 73.46 0 0 0-3-7.33c.54-.07 1-.26 1.55-.33a12.25 12.25 0 0 0 1.3-.59 57.55 57.55 0 0 0 2 5.83c1.83 5.37 2.24 6.2 2.47 6.89-3 .77-5.51 1.58-9.26 2.79l-4.46 1.54ZM35.26 252.84a73.24 73.24 0 0 0 9.45-1.78c.07.81.1 1.71.28 2.78s.39 2.06.59 2.82c-3.1.25-5.7.61-9.6 1.16l-4.66.75-6.94 1.16a76.57 76.57 0 0 0 1.67 7.74c-.54 0-1 .08-1.57 0a11 11 0 0 0-1.38.37c-.23-1.21-.24-2.88-1-6.09-.88-5.6-1.13-6.5-1.25-7.21 3.1-.25 5.7-.61 9.6-1.16l4.66-.75ZM157.01 410.37c1.31-3.72 2.23-6.28 3-9.32 2 .68 4 1.55 5.87 2.25a52.31 52.31 0 0 0 7 2.32 5 5 0 0 0-.65 1.34 6.11 6.11 0 0 0-.38 1.57c-2.39-1.07-6.32-2.74-7.38-3.16-1 2.37-1.92 4.83-2.8 7.17 2.88.93 5.06 1.65 7.69 2.44a4.3 4.3 0 0 0-.72 1.47 5.83 5.83 0 0 0-.31 1.44c-2.39-1.07-4.88-2.12-7.44-3l-1.59 4.22c-.53 1.4-1 2.78-1.39 4.15a58.4 58.4 0 0 0 7.66 2.35 11.47 11.47 0 0 0-.62 1.43 5.51 5.51 0 0 0-.4 1.47c-1.19-.48-2.62-1.11-5.77-2.27-2.34-.88-4.68-1.76-7.06-2.42 1.25-2.87 2.29-5.36 3.6-9.07ZM63.63 332.9c3.22-2.27 5.46-3.82 7.85-5.85 1.21 1.69 2.36 3.57 3.48 5.23a54.18 54.18 0 0 0 4.39 6 5 5 0 0 0-1.31.71 6.3 6.3 0 0 0-1.21 1.06c-1.34-2.26-3.57-5.9-4.19-6.85-2.17 1.36-4.37 2.82-6.44 4.22 1.8 2.43 3.17 4.28 4.85 6.45a4.36 4.36 0 0 0-1.43.77 5.65 5.65 0 0 0-1.09 1c-1.33-2.26-2.75-4.56-4.31-6.79l-3.73 2.52c-1.24.83-2.39 1.71-3.54 2.58a58.89 58.89 0 0 0 4.89 6.35 10.56 10.56 0 0 0-1.34.81 5.64 5.64 0 0 0-1.18 1c-.69-1.08-1.49-2.42-3.39-5.19-1.4-2.08-2.79-4.15-4.35-6.07 2.68-1.61 5-3 8.19-5.3ZM409.99 145.28a3.34 3.34 0 1 1-1.7-4.4h.1a3.46 3.46 0 0 1 1.6 4.4ZM190.51 424.08a3.34 3.34 0 1 1-1.7-4.4h.1a3.46 3.46 0 0 1 1.6 4.4Z"/></svg>