<svg xmlns="http://www.w3.org/2000/svg" xml:space="preserve" width="357.33896" height="700" viewBox="0 0 357.33896 699.99997"><path d="M2055.93 5235.57s9.27-57.25 11.75-70.92c2.42-13.74 10.74-63.64 19.06-72.95 12.17-13.45 72.79-58.77 156.89-66.97 44.57-4.32 58.57 12.67 60.56 20.39 1.94 7.66 6.47 32.83-29.23 50.54 0 0-22.81 12.76-85.57 31.96-30.33 9.3-52.46 16.99-55.89 22.87-1.4 2.39-7.7 20.81-12.11 44.87-6.46 35.15-11.43 67.6-11.43 67.6s4.24 12.21 6.3 28.31c1.88 14.88 1.33 29.96 1.33 29.96l-7.83 10.27-14.67-59.21-38.16-35.2M1885.14 5285.63s-18.26-4.45-19.66-19.34c-1.52-16.25 6.49-22.46 7.48-23.72 1-1.27-2.98-21.44 1.26-33.67 4.23-12.22 16.99-34.74 37.69-35.47 20.71-.76 27.45 9.73 28.19 13.71.77 4.02-.98 8.49-.98 8.49s3.11 1.93 4.47 5.99c1.51 4.48 0 8.74 0 8.74s5.43 3.08 6.75 9.23c2 9.2-2.75 14.68-3 16.44-.24 1.75 4.75 2.76 3.23 10.49-1.02 5.42-8.44 12.49-19.42 15.46-1.81.48-3.1 2.2-8.85 4.68l-37.16 18.97" style="fill:#231f20;fill-opacity:1;fill-rule:nonzero;stroke:none" transform="matrix(.7549 0 0 -.7549 -1396.314 4492.655)"/><path d="M1918.74 5258.7s16.51 33.43 29.05 46.75c12.28 13.01 24.67 20.46 27.56 20.46 2.87 0 2.43 14.26 2.43 14.26s-37.96-14.93-47.55-33.6c-9.58-18.68-11.99-40.71-12.44-42.62-.49-1.93.95-5.25.95-5.25" style="fill:#231f20;fill-opacity:1;fill-rule:nonzero;stroke:none" transform="matrix(.7549 0 0 -.7549 -1396.314 4492.655)"/><path d="m2017.87 5396.59-31.61-7.65-54.59-45.52-41.65-71.33s-10.27-11.02-8.36-.49c1.93 10.53 8.99 31.76 19.69 52.73 12.91 25.33 30.75 44.81 47.22 56.69 20.6 14.86 31.48 18.89 59.06 26.76l10.24-11.19" style="fill:#231f20;fill-opacity:1;fill-rule:nonzero;stroke:none" transform="matrix(.7549 0 0 -.7549 -1396.314 4492.655)"/><path d="M1925.87 5259.64c7.63-2.1 27.65-10.25 17.64-22.07-11.58-13.67-19.11 11.78-17.22 21.05" style="fill:#7f84c4;fill-opacity:1;fill-rule:nonzero;stroke:none" transform="matrix(.7549 0 0 -.7549 -1396.314 4492.655)"/><path d="M1932.56 5215.6c20.14-7.37 17.37 22.67.86 29.35-24.83 10.11-21.93-31.26-1.82-29.77" style="fill:#7f84c4;fill-opacity:1;fill-rule:nonzero;stroke:none" transform="matrix(.7549 0 0 -.7549 -1396.314 4492.655)"/><path d="M1912.75 5218.94c-.67 20.49 38.55 1.67 23.93-19.84-12.57-18.47-37.36-.7-22.07 18.23" style="fill:#7f84c4;fill-opacity:1;fill-rule:nonzero;stroke:none" transform="matrix(.7549 0 0 -.7549 -1396.314 4492.655)"/><path d="M1915.3 5203.85c3.04 13.26 13.16 26.27 1.55 39.73-9.15 10.6-21.13 4.37-32.8 5.84l-7.28 1.2c.12-.49 2.55-1.89 2.66-2.42-2.73-18.89-7.66-41.72 12.71-56.77 4.19-8 10.59-12.02 21.1-13.65 8.25-1.26 24.12 4.04 21.8 15.02-1.78 8.36-12.92 9.55-19.74 11.05" style="fill:#7f84c4;fill-opacity:1;fill-rule:nonzero;stroke:none" transform="matrix(.7549 0 0 -.7549 -1396.314 4492.655)"/><path d="M1928.24 5246.66c-3.28-11.12-17.96-16.06-32.78-10.91-14.85 5.14-28.87 18.08-23.8 32.18 5.78 16.21 20.78 13.39 35.64 8.25 14.82-5.1 24.23-18.36 20.94-29.52" style="fill:#7f84c4;fill-opacity:1;fill-rule:nonzero;stroke:none" transform="matrix(.7549 0 0 -.7549 -1396.314 4492.655)"/><path d="M1875.41 5248.79c7.02-6.33 14.11-13.32 24.4-14.02-7.31 1.12-26.98.32-23.63 12.28M1921.17 5237.22c3.75-8.64-2.79-25-6.64-32.73 3.4-2.79 9.42-3.26 13.45-5.7-.82 2.55-5.6 5.8-8.71 7.2 6.57 8.15 5.9 19.72 7.12 29.42.99 7.64 10.14 17.13 1.02 24.09 2.09-9.05-.38-17.28-6.65-22.49" style="fill:#231f20;fill-opacity:1;fill-rule:nonzero;stroke:none" transform="matrix(.7549 0 0 -.7549 -1396.314 4492.655)"/><path d="M1940.07 5212.64c-.17 4.29-6.86 11.61-10.88 13.07 3.47-1.9 5.6-3.47 8.29-5.8 2.52-2.27 4.12-4.89 6.47-7.03-.95-.42-2.09-.66-3.27-.49M1944.08 5235.64c-3.35 2.39-6.53 6.41-10.35 9.13 2.73-.03 14.98-6.26 9.75-8.88" style="fill:#231f20;fill-opacity:1;fill-rule:nonzero;stroke:none" transform="matrix(.7549 0 0 -.7549 -1396.314 4492.655)"/><path d="M1929.38 5225.43c3.47-1.88 9.39-10.77 10.5-14.51 7.05 2.28-7.37 13.19-9.88 14.28M1937.41 5195.39c-1.43 2.28-4.86 4.45-7.41 4.2 2.06-3.14 4.4-5.07 5.45-8.85.43 1.78 1.09 3.49 1.44 5.28M1928.87 5250.76c3.64 0 6.12 3.15 10.71.9-5.07.36-7.94-2.31-11.3-5.31-.55 1.47-.17 3.32.46 4.83M1921.74 5237.89c-1.99-2.91-7.31-3.26-10.41-3.82 2.76.42 5.42-.2 8.24.24 1.37.22 6.44 1.69 2.5 3.41M1886.45 5197.07c-.14 4.59-2.47 8.12-1.18 13.12-.07-7.8 5.06-12.9 7.56-19.76-.4-.32-.8-.63-1.16-.95-2.1 2.59-5.17 5.84-8.08 7.28.46.38 1.04.63 1.61.83" style="fill:#231f20;fill-opacity:1;fill-rule:nonzero;stroke:none" transform="matrix(.7549 0 0 -.7549 -1396.314 4492.655)"/><path d="M1975.35 5336.92s-22.82-13.36-38.61-38.67c-8.84-14.2-12.69-25.85-17.43-39.84-6.58-19.48-24.88-9.97-24.88-9.97s-13.29 7.46-9.97 23.22c3.32 15.78 21.68 55.72 39 77.18 14.27 17.71 31.42 32.18 52.67 41.62 17.31 7.7 34.98 10.15 34.98 10.15l-8.31-45.67-27.45-18.02" style="fill:#fab80a;fill-opacity:1;fill-rule:nonzero;stroke:none" transform="matrix(.7549 0 0 -.7549 -1396.314 4492.655)"/><path d="M1887.64 5282.69s-6.71-18.55-1.5-25.71c4.54-6.26 10.58-9.93 15.53-10.35 5.63-.49 11.03-.87 16.18 7.98 0 0-1.57-6.2-6.46-9.06-5.18-3.01-15.21-3.05-22.23 2.58-7.57 6.05-7.5 10.88-8.27 17.17-1.01 8.18 2.45 14.48 4.25 20.33l2.5-2.94" style="fill:#231f20;fill-opacity:1;fill-rule:nonzero;stroke:none" transform="matrix(.7549 0 0 -.7549 -1396.314 4492.655)"/><path d="M1988.61 5375.14s-2.5-4.39-8.88-20.04c-3.62-8.83-4.38-13.42-4.38-15 0-.2-23.6-17.3-36.71-36.43-11.39-16.72-16.97-29.66-16.97-29.66s3.47 15.77 14.59 35.39c12.02 21.15 52.35 65.74 52.35 65.74" style="fill:#f78d11;fill-opacity:1;fill-rule:nonzero;stroke:none" transform="matrix(.7549 0 0 -.7549 -1396.314 4492.655)"/><path d="M2010.75 5205.64c-4.33 38.97-16.13 58.82-16.09 58.82-10.35 15.67-16.37 36.06-16.37 59.03 0 14.42 3.85 28.22 8.13 40.71-6.58-14.05-13.37-30.63-13.37-48.16 0-10.69 1.85-21.32 5.35-31.47 3.56-10.45 10.21-19.59 14.12-29.96 3.16-8.26 5.46-16.89 7.25-25.57 1.57-7.66 2.76-15.35 3.59-23.12 1.13-9.94 3.76-28.36 4.94-44.21 1.58-.91 5.25-1.67 7.62-2.3-1.29 16.69-4.03 35.8-5.17 46.23M2082.71 5426.31s.95-7.58 3.48-16.19c2.55-8.6 4.57-9.62 4.57-9.62l-10.03-2.49-2 14.17 3.98 14.13M2000.92 5400.33s3.98 6.76 4.96 12.84c1.09 6.49 2.07 13.14 2.07 13.14l4.44-12.58-.94-12.48-10.53-.92" style="fill:#231f20;fill-opacity:1;fill-rule:nonzero;stroke:none" transform="matrix(.7549 0 0 -.7549 -1396.314 4492.655)"/><path d="M2081.74 5406.48s10.11-4.19 31.35-9.73c18.14-4.7 34.09-5.8 48.81-6.29 16.44-.52 63.03 11.59 60.61 13.39-3.86 2.83 36.21-25.58 36.21-25.58s-29.44-24.7-62.2-36.63c-26.01-9.44-67.08-12.96-79.48-11.01-13.02 2.1-29.22 38.55-29.22 38.55l-6.08 37.3M2053.87 5239.07s5.08-59.3 6.08-69.73c.98-10.42 7.9-66.88.66-76.88-15.9-21.82-78.72-40.32-99.52-47.27-36.03-12-94.66-29.06-108.55-.28 0 0-10.23 20.46 7.89 38.57 15.63 15.64 35.78 25.54 63.16 33.5 28.4 8.29 79.14 22.36 83.13 27.81 2.91 4.02.49 29.76.49 29.76l7.59 65.98 35.22-2.96" style="fill:#231f20;fill-opacity:1;fill-rule:nonzero;stroke:none" transform="matrix(.7549 0 0 -.7549 -1396.314 4492.655)"/><path d="m2012.3 5171.58 22.33-3.47 19.35 6.93.49-11.9-20.84-5.93-20.34 3.45-.99 10.92M2036.52 5919.88c0-4.13-3.12-7.45-6.96-7.45s-6.98 3.32-6.98 7.45c0 4.09 3.14 7.41 6.98 7.41 3.84 0 6.96-3.32 6.96-7.41M1905.27 5496.05s-11.61 8.42-20.36 5.24c-5.65-2.06-10.24-10.16 1.65-15.55 6.99-3.2 20.67-9.51 28.37-17.33 7.7-7.79 23.32-24.32 39.76-34.58 16.61-10.39 42.67-21.26 54.34-22.8 23.24-3.04 2.04 18.47 2.04 18.47l-105.8 66.55" style="fill:#231f20;fill-opacity:1;fill-rule:nonzero;stroke:none" transform="matrix(.7549 0 0 -.7549 -1396.314 4492.655)"/><path d="M1886.85 5591.27s-9.28 20.33-17.35 12.07c-6.51-6.61 4.02-21.36 7.27-29.59 3.25-8.21 3.98-21.89 6.02-33.14 2.03-11.23 10.37-31.2 22.48-44.56 12.11-13.36-5.74 38.54-5.74 38.54l-12.68 56.68M2197.68 5503.65s21.01 13.24 25.39 3.94c3.88-8.29-8.58-13.29-10.89-14.93-2.34-1.65-14.3-8.4-20.5-14.73 0 0-24.25-27.77-42.24-40.39-18.01-12.63-51.3-28.3-69.93-27.7-2.35.11-3.71 4.28-.19 7.77 15.44 15.34 78.1 54.2 78.1 54.2l40.26 31.84" style="fill:#231f20;fill-opacity:1;fill-rule:nonzero;stroke:none" transform="matrix(.7549 0 0 -.7549 -1396.314 4492.655)"/><path d="M2211.34 5598.83s8.57 21.68 18.02 13.43c8.45-7.45-4.16-23.01-7.04-33.15-3.63-12.81-1.57-20.67-4.72-34.59-3.36-14.87-16.75-37.77-19.92-40.87-3.18-3.16-2.62 32.13-2.62 32.13l16.28 63.05" style="fill:#231f20;fill-opacity:1;fill-rule:nonzero;stroke:none" transform="matrix(.7549 0 0 -.7549 -1396.314 4492.655)"/><path d="m2165.92 5700.95-.88.99c.23-.4.53-.74.88-.99" style="fill:#231516;fill-opacity:1;fill-rule:nonzero;stroke:none" transform="matrix(.7549 0 0 -.7549 -1396.314 4492.655)"/><path d="M2205.61 5664.29c-10.81 45.3-18.36 56.66-21.65 61.38-3.04 4.45-10.01 8.54-12.8 2.6-3.68-7.84 0-19.13-.7-24.35-.55-4.09-4.37-3.56-5.34-1.57-1.26 3.53-1.64 10.7-2.65 20.15-1.38 12.61-3.09 34.82-7.95 46.32-4.87 11.52-13.32 19.04-20.63 14.6-3.32-2.03-3.47-6.68-3.28-10.29.22-4.02 1.44-8.01 1.49-12.06.04-2.67-2.04-4.41-4.37-3.67-2.8.84-4.1 4.62-4.79 7.35-.6 2.34-.86 4.12-1.3 6.52-.93 5.16-1.66 10.33-2.42 15.51-.41 2.81-.84 5.66-1.33 8.49-2.79 15.25-7.97 28.86-10.76 34.44-2.81 5.57-10.7 23.71-17.98 15.95-4.67-4.96-3.88-16.26-2.03-24.02 1.03-4.51 1.96-8.25 2.04-10.84.13-3.89-1.58-3.61-1.58-3.61s-.91-.16-3.32 2.63c-3.19 3.74-7.25 10.8-11.92 16.61-8.4 11.37-17.84 20.6-16.3 22.25 3.67 4.89.41 14.71-6.34 16.68.11 1.15.6 2.64.6 2.64 2.59.5 7.09 1.69 9.15 2.25 4.07 1.19 7.76 3.56 11.9 4.69 3.98 1.08 8.33 1.04 12.19 2.79 3.49 1.55 6.22 4.48 9 7.14-.52.17-.83 1.08-1.4 1.22 4.2 2.25 8.91 1.72 13.33 3.33 3.97 1.46 8.17 5.63 8.92 11.46 0-.04-14.84-2.9-17.06-4.22 7.93 8.41 28.22 1.04 40.45 10.35 8.21 6.22 11.33 24.2 13.92 34.1v.14c-4.05-4.34-8.38-8.81-13.18-12.25-5.42-3.92-11.43-6.82-17.93-7.9-7.42-1.22-16.52-.64-26.98-6.51-4.27-2.41-8.66-7.58-13.22-12.07 5.07 5.99 7.28 14.27 7.55 16.79.75 6.34-1.19 16.02-4.17 21.61-3.17 6.03-8.48 9.9-14.59 10.39 5.05-15.24-2.53-30.74-16.83-33.91 1.81 1.91 2.21 4.19 1.39 6.88 6.76 4.3 5.74 13.5 1.13 20.39-6.98-10.31-4.42.41-9.44 2.94-3.92 1.96-7.8-.75-7.85-.5 0 .11-4.43 1.94-7.6 0-5.43-3.36-2.25-5.76-5.76-7.83-4.95-2.94-2.94-9.15-2.99-9.24-3.37-3.03-3.81-9.4-1.79-14.01 2.17-.46 5.73 8.67 9.25 9.4 3.99.82 3.24-9.2 4.63-9.22-9.39-5.71-24.83-19.24-18.43-34.08 2.34-5.38 7-8.42 11.9-10.76 1.7-.84 4.05-1.89 6.11-2.62.71-.25 3.61-1.06 3.64-1.16.21-1.23.57-3.74.52-3.78-2.51-1.81-5.69-5.11-5.69-9.29 0-2.08.1-3.13 1.59-5.77.74-1.37-8.59-11.66-16.77-24.49-4-5.55-7.63-11.61-10.67-15.7-2.38-3.51-3.91-3.21-3.91-3.21s-1.44-.31-1.44 4.26c0 1.85-.02 2.69.39 5 1.96 10.84 4.01 25.46-.63 27.87-7.23 3.71-14.94-5.41-21.19-22.09-6.06-16.3-6.94-31.53-7.67-37.53-.76-5.92-1.51-24.7-5.63-28.99-1.67-1.78-6.4-2.35-6.4 4.96 0 9.23.18 20.1-5.07 20.92-6.35.97-14.51-4.62-18.25-23.05-3.78-18.47-4.11-39.14-4.52-43.97-.34-4.78-.26-10.42-1.12-14.82-.4-2.17-1.77-3.43-3.03-3.54-1.51-.04-4.12.63-4.45 6.12-.43 7.81 3.6 21.82-1.37 24.31-7.87 3.91-13.48-8-19.86-26.12-9.68-27.35-13.39-62.82-13.85-71.42-.91-16.95.04-37.9.04-37.9l40.6 104.77 9.44 4.19 22.54 38.06 5.98 17.14c7.3 6.46 47.41 48.18 47.41 48.18l24.27 43.01c1.05-.37 2.23-.61 3.51-.61 1.96 0 .4 2.48 2.33 2.79 1.92.31 3.08-.62 4.25-1.48l-1-.93 20.46-26.16s42.01-46.9 58.71-65.27l.82-8.66 38.77-42.11 10.36-16.19s33.74-121.05 36.33-87.26c2.6 33.79-5.73 65.46-5.73 65.46" style="fill:#231f20;fill-opacity:1;fill-rule:nonzero;stroke:none" transform="matrix(.7549 0 0 -.7549 -1396.314 4492.655)"/><path d="m1886.44 5559.11.01.03c-.1-.21-.06-.14-.01-.03" style="fill:#fab80a;fill-opacity:1;fill-rule:nonzero;stroke:none" transform="matrix(.7549 0 0 -.7549 -1396.314 4492.655)"/><path d="M2197.68 5503.65c5.24 10.76 9.41 22.3 12.3 34.55l.1.06s.61 2.56.89 4.24c.26 1.43.87 5.13 1.04 6.29v.14c.04.1.06.21.06.21l-.02-.03c.9 7.12 1.32 14.44 1.15 21.8 0 .26-.04.54-.04.75l.39-3.92s-.22 8.64 2.14 17.38c2.37 8.75 10.37 18.12 8.25 21.61-1.87 3.04-10.35-5.52-12.6-7.9-1.26 13.57-3.59 31.13-7.94 49.98-7.06 30.67-21.29 73.3-27.27 73.36-5.99.08 1.79-23.22-8.67-21.81-10.5 1.36-10.98 76.8-29.11 75.44-6.85-.53 1.67-20.89-8.21-20.27-9.83.64-12.51 29.53-18.36 46.77-4.97 14.65-13.74 34.97-19.93 34.83-6.22-.17-1.55-17.09-1.36-25.42.12-4.52-.7-7.35-1.45-9.03-25.94 30.01-45.63 49.39-45.63 49.84 0 0-18.96-20.31-43.68-51.87-.74 1.69-1.59 4.4-1.71 8.64-.18 8.36 3.75 25.46-2.45 25.3-6.23-.15-14.09-20.92-18.38-35.82-5.09-17.48-6.49-46.48-16.28-47.6-9.8-1.15-2.24 19.62-9.09 19.75-18.12.46-15.29-74.9-25.71-76.85-10.39-1.96-3.63 21.75-9.62 21.36-5.97-.39-18.29-43.68-23.99-74.74-3.42-18.64-4.96-35.94-5.65-49.42-3.16 2.91-10.47 9.24-12.03 6.41-1.96-3.64 6.43-12.59 9.18-21.15 1.2-3.78 1.93-7.56 2.35-10.61 0-1.16-.04-2.34 0-3.49.04-1.05.11-2.13.17-3.19-.03-.04-.06-.1-.08-.13-.24-.88.28-.36.15-1.3.15-3 .39-6.02.75-8.99 0 0 .55-5.27 1.29-8.84.69-3.57 3.87-13.19 3.87-13.19l.11-.07c3.21-10.81 7.5-21.06 12.66-30.67-7.53 2.21-16.54 3.82-18.53-.14-.97-1.96 13.4-9.06 22.8-15.53 9.38-6.55 22.17-20.56 22.17-20.56l.39-.04c30.46-30.88 73.36-48.81 121.14-47.6 47.41 1.27 89.8 21.16 119.29 53.94l.1-.08s12.48 14.74 21.57 21.73c9.1 6.99 23.12 14.82 22.07 16.7-2.16 3.89-11.15 1.76-18.59-.82zm-146.9 112.17c1.1.04 2.15.04 3.22.08-1.14-.04-2.23-.04-3.36-.08h.14zm97.51-104.91c-30.18-8.43-65.26-13.21-95.79-13.99-34.97-.9-82.36 3.4-118.1 14.52l-.06.2s-17.27 5.95-26.7 12.88c-3.28 2.42-6.74 6.12-9.86 9.9 24.29-20.77 84.68-34.38 155.11-32.57 59.69 1.54 111.71 13.82 140.36 30.96-5.55-4.45-11.45-8.65-16.25-10.95-13.57-6.47-28.29-10.66-28.29-10.66l-.42-.29" style="fill:#fab80a;fill-opacity:1;fill-rule:nonzero;stroke:none" transform="matrix(.7549 0 0 -.7549 -1396.314 4492.655)"/><path d="M1886.45 5583.77c.11 2.37.28 4.88.45 7.5-3.01 2.77-9.93 8.75-11.38 6.06-.85-1.61.41-4.3 2.26-7.55 2.49-.6 6.61-4.13 8.67-6.01M1910.55 5697.69c4.93.29-.63-18.94 7.97-17.37 2.35.45 3.88 5.38 5.18 12.3-8.27-.41-2.69 19.73-7.9 19.38-2.66-.14-6.69-9.65-10.69-22.55 2.08 4.99 4 8.14 5.44 8.24M1946.43 5759.04c5.66-.15-.58-16.93 7.5-16.02 2.71.32 4.64 3.19 6.18 7.39-.39-.19-.81-.3-1.26-.36-8.82-1.01-1.99 17.66-8.19 17.81-4.47.09-7.52-4.91-9.79-12.29 1.54 2.25 3.36 3.54 5.56 3.47M1990.41 5822.96c5.13.11 1.9-13.74 2.05-20.52.06-3.43.76-5.67 1.4-6.99 1.47 1.85 2.93 3.64 4.36 5.41-.63 1.51-1.25 3.85-1.33 7.28-.19 7.55 3.32 22.94-2.27 22.8-3.08-.06-6.64-5.84-9.82-13.26 1.89 3.16 3.83 5.21 5.61 5.28M2212.18 5593.9c1.45 1.51 6.2 7.41 9.21 8.81 1.71 3.4 3.33 2.44 2.36 4.02-1.64 2.71-8.95-4.78-12.09-7.94.35-2.86.28-2.34.52-4.89M2173.95 5688.32c8.65-1.12 2.25 17.74 7.16 17.7 3.27-.03 9.42-15 14.95-32.35-6.61 23.11-15.17 45.92-19.33 45.96-5.4.02 1.63-20.92-7.8-19.65-.21.02-.41.1-.63.21 1.58-6.79 3.32-11.55 5.65-11.87M2136.46 5745.65c8.09-.5 1.12 15.94 6.77 16.4 4.11.27 7.15-4.2 9.57-10.91-3 12.24-6.93 21.92-13.18 21.47-6.16-.5 1.47-18.79-7.39-18.21-1.33.09-2.47.73-3.56 1.85 1.97-6.03 4.35-10.39 7.79-10.6M2091.01 5802.72c1.76-1.96 3.57-3.95 5.38-6.06.63 1.37 1.75 6.13 1.65 9.76-.14 6.79-4 20.46 1.15 20.57.48.04 1.04-.14 1.62-.45-2.67 4.43-5.31 7.42-7.57 7.37-5.6-.14-1.39-15.35-1.22-22.87.07-2.44-.66-6.86-1.01-8.32M2042.3 5834.72c-10.68-.13-27.35-68.31-27.35-68.31s16.5 45.16 28.53 44.45c12-.65 27.52-43.08 27.52-43.08s-17.52 67.15-28.7 66.94" style="fill:#f78d11;fill-opacity:1;fill-rule:nonzero;stroke:none" transform="matrix(.7549 0 0 -.7549 -1396.314 4492.655)"/><path d="M1894.25 5542.46c45.63-21.86 98.97-19.76 148.59-23.92 13.29-1.08 25.16.06 38.32 1.67 17.39 2.11 34.99 1.27 52.51 2.11 13.51.65 26.94 3.59 39.42 8.7 6.68 2.8 14.96 8.53 22.1 8.33.79-10.77.87-15.56-7.52-22.35-13.68-11.05-30.78-19.61-47.06-25.87-16.98-6.52-33.86-4.7-51.63-6.93-23.07-2.91-46.28-4.56-69.57-4.34-13.73.14-27.2 2.62-40.77 4.34-12.7 1.57-26.82 1.74-38.99 5.76-12.07 3.99-23.29 13.47-31.54 22.91-4.24 4.79-18.59 24.59-13.04 29.63" style="fill:#fab80a;fill-opacity:1;fill-rule:nonzero;stroke:none" transform="matrix(.7549 0 0 -.7549 -1396.314 4492.655)"/><path d="M2031.62 5598.87c.53-23.85-11.34-43.48-26.48-43.89-15.14-.39-27.87 18.61-28.39 42.46-.53 23.85 11.32 43.46 26.48 43.88 15.14.38 27.83-18.64 28.39-42.45" style="fill:#231f20;fill-opacity:1;fill-rule:nonzero;stroke:none" transform="matrix(.7549 0 0 -.7549 -1396.314 4492.655)"/><path d="M2027.36 5598.02c.53-22.48-10.11-39.76-22.77-40.07-12.7-.35-23.36 17.63-23.85 40.07-.53 22.49 8.88 39.73 21.57 40.05 12.64.35 24.55-17.59 25.05-40.05" style="fill:#fff;fill-opacity:1;fill-rule:nonzero;stroke:none" transform="matrix(.7549 0 0 -.7549 -1396.314 4492.655)"/><path d="M2027.98 5590.72c.46-18.43-9.67-33.61-22.58-33.92-12.9-.35-23.72 14.34-24.14 32.77-.46 18.42 9.69 33.64 22.56 33.91 12.94.36 23.75-14.34 24.16-32.76" style="fill:#231f20;fill-opacity:1;fill-rule:nonzero;stroke:none" transform="matrix(.7549 0 0 -.7549 -1396.314 4492.655)"/><path d="M2033.59 5919.88c0-2.38-1.82-4.31-4.03-4.31-2.2 0-4.02 1.93-4.02 4.31 0 2.37 1.82 4.3 4.02 4.3 2.21 0 4.03-1.93 4.03-4.3" style="fill:#fab80a;fill-opacity:1;fill-rule:nonzero;stroke:none" transform="matrix(.7549 0 0 -.7549 -1396.314 4492.655)"/><path d="M2126.95 5917.01c-8.27-2.91-17.86.1-26.21-2.59-6.65-2.13-13.05-6.53-18.2-11.16-3.14-2.83-6.18-4.41-8.45-4.75 6.46 3.74 7.39 11.54 8 18.12.78 8.67-1.91 22.94-8.46 27.38.86-4.2 0-11.55-2.18-16.27-2.47-5.38-7.19-9.44-12.64-12.35-6.26-3.32-12.62-3.76-18.34-7.76.59.77 1.22 1.68 1.89 2.69.1.11.21.25.32.43 1.64 2.68 5.53 7.91 5.91 13.95 0 .45.04.91.04 1.33 4.44 1.83 5.06 8.01 3.27 11.68-.45-1.83-2.15-5.27-4.32-5.07-.08.24-.16.45-.26.66-.87 2-2.48 3.22-2.93 4.9-.6 2.07-.67 4.24-3.12 5.24-2.39.99-3.77-1.46-5.76-1.25-.59.03-1.08.87-1.99.94-.9.11-2.52-.11-3.29-.45-2.07-1.02-3.28-4.02-2.74-6.08-1.68-.88-2.1-1.22-2.97-3.01-.89-1.86-.56-3.61-1.21-5.42-.5-1.47-1.93-3.09-2.62-4.55-.94-2.17-.81-2.98-.5-4.85 2.69 2.41 3.56 4.01 6.57 6.04 2.22 1.46 6.44 4.47 9.11 3.18 6.66-3.18-5.5-13.92-8.03-16.05v-.08c-2.12-1.91-5.1-4.58-7.1-7.31-3.84-5.28-5.1-13.88-2.55-19.68 3.82-8.74 11.86-12.41 20.79-13.05 1.96-2.83 2.03-6.64 1.89-10.46-3.55-1.36-5.99-4.89-5.68-8.88.37-4.83 4.58-8.38 9.44-7.94 4.86.42 8.47 4.66 8.11 9.48-.34 4.41-3.91 7.73-8.25 7.94-.42 3.18.16 6.92 1.55 10.01 6.67.65 13.35 2.71 18.84 5.45.84.31 1.68.59 2.38.81 2.1.54 4.17.84 6.17 1.42 4.46 1.26 9.75 1.83 12.89 5.78-5.95-1.29-6.79-.47-8.74-.32 2.56 1.48 5.21 2.77 8.17 3.54 6.69 1.78 17.84 3.07 22.22 9.58-3.95-.35-6.9-.91-10.9-1.29 7.09 8.59 20.29 7.9 29.78 10.65 4.72 1.37 8.78 4.66 11.2 8.89 3.15 5.5 3.85 9.13 6.12 14.86-4.41-6.11-9.97-11.75-17.22-14.33" style="fill:#fab80a;fill-opacity:1;fill-rule:nonzero;stroke:none" transform="matrix(.7549 0 0 -.7549 -1396.314 4492.655)"/><path d="M1998.02 5493.68c2.69-3.64 7.69-15.15 11.19-18.48 10.63-10.16 15.04-13.01 34.42-13.67 18.73-.64 27.72 3.71 38.8 12.87 4.2 3.43 7.18 13.96 10.43 17.91-12.87 4.68-26.44 3.49-48.68 4.05-21.76.53-33.11 1.19-46.16-2.68" style="fill:#d82342;fill-opacity:1;fill-rule:nonzero;stroke:none" transform="matrix(.7549 0 0 -.7549 -1396.314 4492.655)"/><path d="M2115.02 5522.28c-2.75-.64-38.66-11.3-67.18-9.94-22.25 1.09-44.96 4.62-58.74 8.15-6.23 1.62-12.17 5.25-14.28 5.88 14.03-12.94 25.75-35.43 25.75-35.43s12.03 2.31 38.46 3.22c2.49-.13 5.07-.45 6.54-1.27 3.59-1.88 3.27-11.66 3.27-11.66s3.13 6.85 1.1 11c-.49 1.02-.95 1.52-1.88 2 28.37-.42 43.01-4.93 43.01-4.93s8.37 25.49 23.95 32.98" style="fill:#871b3a;fill-opacity:1;fill-rule:nonzero;stroke:none" transform="matrix(.7549 0 0 -.7549 -1396.314 4492.655)"/><path d="M1974.88 5526.21s57.96-24.98 140.08-4.1c0 0-71.07-27.5-140.08 4.1" style="fill:#000;fill-opacity:1;fill-rule:nonzero;stroke:none" transform="matrix(.7549 0 0 -.7549 -1396.314 4492.655)"/><path d="M1975.64 5525.37c28.98-19.24 26.68-64.26 70.68-63.98 48.37.29 40.43 48.79 68.15 60.2-23.11-12.5-19.34-64.86-68.15-64.02-46.76.84-40.93 40.4-70.68 67.8" style="fill:#000;fill-opacity:1;fill-rule:nonzero;stroke:none" transform="matrix(.7549 0 0 -.7549 -1396.314 4492.655)"/><path d="M1978.68 5534.59s-2.26-10.04-8.88-12.73c0 0 8.38.8 8.88 12.73M2111.91 5529.46s2.29-10.04 8.92-12.78c0 0-8.39.84-8.92 12.78" style="fill:#000;fill-opacity:1;fill-rule:nonzero;stroke:none" transform="matrix(.7549 0 0 -.7549 -1396.314 4492.655)"/><path d="M2141.61 5654.96s-26.65 78.44-43.82 78.96c-17.18.5-37.08-83.51-52.85-83.86-17.62-.35-35.31 81.84-51.96 78.87-16.68-3.05-44.7-82.53-44.7-82.53s24.6 90.05 44.56 91.65c19.93 1.58 38.54-70.92 51.52-69.17 12.96 1.76 35.55 76.2 52.81 75.82 20.19-.45 44.44-89.74 44.44-89.74" style="fill:#fff;fill-opacity:1;fill-rule:nonzero;stroke:none" transform="matrix(.7549 0 0 -.7549 -1396.314 4492.655)"/><path d="m2197.68 5503.65-3.97-8.09s17.52 7.1 18.47 8.78c.98 1.79.16 2.2-1.16 2.2-1.31 0-6.11-.7-9.05-1.4-2.95-.7-4.29-1.49-4.29-1.49M1905.27 5495.8l4.83-8.07s-20.33 5.73-20.85 8.15c-.73 3.57 4.75 2.2 4.94 2.2 1.36 0 3.38-.17 4.95-.53 1.52-.38 6.16-1.26 6.16-1.26" style="fill:#f78d11;fill-opacity:1;fill-rule:nonzero;stroke:none" transform="matrix(.7549 0 0 -.7549 -1396.314 4492.655)"/><path d="M2017.25 5588.34c0-7.07-4.89-12.8-10.93-12.8-6.03 0-10.93 5.73-10.93 12.8s4.9 12.8 10.93 12.8c6.04 0 10.93-5.73 10.93-12.8" style="fill:#fff;fill-opacity:1;fill-rule:nonzero;stroke:none" transform="matrix(.7549 0 0 -.7549 -1396.314 4492.655)"/><path d="M2065.3 5600.82c-1.43-23.77 9.65-43.92 24.78-44.96 15.12-1.05 28.53 17.37 29.99 41.17 1.43 23.79-9.64 43.94-24.77 44.99-15.12 1.05-28.53-17.41-30-41.2" style="fill:#231f20;fill-opacity:1;fill-rule:nonzero;stroke:none" transform="matrix(.7549 0 0 -.7549 -1396.314 4492.655)"/><path d="M2069.53 5599.82c-1.39-22.46 8.58-40.16 21.23-41.03 12.64-.88 24 16.58 25.35 39.03 1.37 22.42-7.37 40.07-20.02 40.91-12.66.91-25.22-16.5-26.56-38.91" style="fill:#fff;fill-opacity:1;fill-rule:nonzero;stroke:none" transform="matrix(.7549 0 0 -.7549 -1396.314 4492.655)"/><path d="M2068.63 5592.54c-1.15-18.38 8.38-34.04 21.25-34.9 12.89-.88 24.24 13.32 25.39 31.72 1.16 18.38-8.38 33.98-21.25 34.89-12.91.87-24.26-13.32-25.39-31.71" style="fill:#231f20;fill-opacity:1;fill-rule:nonzero;stroke:none" transform="matrix(.7549 0 0 -.7549 -1396.314 4492.655)"/><path d="M2078.27 5588.73c-.28-7.03 4.42-12.98 10.42-13.26 6.03-.24 11.12 5.28 11.42 12.31.27 7.07-4.42 13.01-10.43 13.25-6.05.28-11.16-5.24-11.41-12.3" style="fill:#fff;fill-opacity:1;fill-rule:nonzero;stroke:none" transform="matrix(.7549 0 0 -.7549 -1396.314 4492.655)"/><path d="M2113.63 5323.92c1.02-77.5-28.25-87.17-67.28-87.17-39.05 0-68.37 36.07-68.37 84.58 0 48.47 29.05 90.37 68.13 90.37 39.02 0 66.89-39.31 67.52-87.78" style="fill:#fab80a;fill-opacity:1;fill-rule:nonzero;stroke:none" transform="matrix(.7549 0 0 -.7549 -1396.314 4492.655)"/><path d="M2007.44 5397.54s1.73 2.62 2.19 11.19c.43 8.56-.74 17.13-.74 17.13h72.92s-.46-6.93 0-14.89c.46-7.99 2.98-13.4 2.98-13.4l-38.68-2.98-38.67 2.95" style="fill:#fab80a;fill-opacity:1;fill-rule:nonzero;stroke:none" transform="matrix(.7549 0 0 -.7549 -1396.314 4492.655)"/><path d="M2083.43 5399.35s11.55-4.16 23.38-7.3c7.84-2.11 35.83-6.3 51.17-6.3 18.88 0 60.61 10.24 70.05 16.54 6.57 4.37 25.38 12.79 33.78-2.13 7.48-13.3-2.02-16.72-3.81-18.75-3.92-4.55-37.59-26.27-63.82-35.05-26.27-8.74-73.24-11.77-78.3-7.43-5.14 4.39-33.17 24.68-33.17 24.68l.72 35.74M2013.79 5167.31c4.01-2.33 11.12-3.88 19.21-3.88 10.16 0 18.73 2.45 21.67 5.8-.31 2.84-.56 5.36-.72 7.49-1.12 14.1-4.65 61.13-4.65 61.13l-29.25 30.95-26.26-2.31s11.09-18.56 15.1-54.98c1.08-9.93 3.72-28.35 4.9-44.2" style="fill:#fab80a;fill-opacity:1;fill-rule:nonzero;stroke:none" transform="matrix(.7549 0 0 -.7549 -1396.314 4492.655)"/><path d="M2054.93 5167.13c-2.73-3.49-11.48-6.09-21.93-6.09-7.98 0-14.95 1.51-19.04 3.78.84-11.74 3.09-23.46.14-24.75-26.95-11.71-106.44-34.98-106.44-34.98s-57.47-20.8-49.11-52.84c7.13-27.34 47.63-14.12 55.08-13.39 7.44.77 139.91 37.94 143.63 63.27 3.04 20.83-.37 47.76-2.33 65M2297.58 5058.21s.47 24.51-52.24 42.59c-49.7 17.06-113.03 35.56-118.14 46.72-1.4 3.1-4.37 13.49-7.89 26.82-2.46-3.81-11.41-7.55-22.55-9.1-10.57-1.43-19.97-.44-24.15 2.18 5.81-31.23 12.81-62.54 18.83-70.5 12.88-17.14 91.72-66.84 163.76-64.74 52 1.48 42.38 26.03 42.38 26.03" style="fill:#7f84c4;fill-opacity:1;fill-rule:nonzero;stroke:none" transform="matrix(.7549 0 0 -.7549 -1396.314 4492.655)"/><path d="M2096.33 5167.59c10.98 1.54 19.82 5.17 22.42 8.99-7.53 34.65-16.68 98.96-16.68 98.96l-31-6.74-10.2-29.73s4.85-34.24 11.3-69.32c4.19-2.62 13.58-3.63 24.16-2.16" style="fill:#fab80a;fill-opacity:1;fill-rule:nonzero;stroke:none" transform="matrix(.7549 0 0 -.7549 -1396.314 4492.655)"/><path d="M2027.61 5143.88c0-6.3-1.29-11.36-2.91-11.36-1.61 0-2.94 5.06-2.94 11.36s1.33 11.37 2.94 11.37c1.62 0 2.91-5.07 2.91-11.37M2120.14 5148.36c2.34-7.28 2.65-13.58.8-14.06-1.82-.49-5.21 5.04-7.51 12.34-2.28 7.28-2.65 13.58-.8 14.06 1.84.49 5.24-5.03 7.51-12.34" style="fill:#fff;fill-opacity:1;fill-rule:nonzero;stroke:none" transform="matrix(.7549 0 0 -.7549 -1396.314 4492.655)"/><path d="M2060.71 5241.25c-5.37-.5-8.14-.32-8.28-.32-13.78 1.57-16.65 2.9-30.98 12.2 9.89-10.98 18.01-16.82 39.94-17.49l-.68 5.61M2113.72 5325.8s-.29 11.24-1.9 17.77c-1.69 6.58-3.71 11.5-3.71 11.5s4.06-2.34 7.38-13.53c3.71-12.52 1.67-30.11 1.67-30.11l-3.44 14.37" style="fill:#231f20;fill-opacity:1;fill-rule:nonzero;stroke:none" transform="matrix(.7549 0 0 -.7549 -1396.314 4492.655)"/><path d="M2027.27 5247.13s9.07-25.69 11.83-39.31c2.75-13.68 7.11-42.84 7.11-42.84l4.33 1.35 4.1 2.7-5.28 67.67s-3.54.31-10.26 2.79c-6.87 2.52-11.83 7.64-11.83 7.64M2107.64 5357.33s3.31-2.85 5.4-8.23c2.23-5.7 2.2-9.73 2.84-10.17 1.28-.84 12.09-2.84 30.02-1.47 7.67.54 28.98 2.9 41.52 6.68 32.04 9.5 61.21 30 61.21 30s-53.06-16.1-66-17.87c-30.15-4.11-74.99 1.06-74.99 1.06" style="fill:#f78d11;fill-opacity:1;fill-rule:nonzero;stroke:none" transform="matrix(.7549 0 0 -.7549 -1396.314 4492.655)"/><path d="M2111.37 5183.09c.63-3.54.02-6.55-1.32-6.72-1.38-.17-3.01 2.59-3.62 6.11l-11.45 64.39c-.64 3.54-.02 6.54 1.35 6.73 1.33.17 2.96-2.6 3.59-6.14l11.45-64.37" style="fill:#fff;fill-opacity:1;fill-rule:nonzero;stroke:none" transform="matrix(.7549 0 0 -.7549 -1396.314 4492.655)"/><path d="m2009.03 5412.63.52 3.89s3.89-1.06 9.31-1.54c5.39-.52 16.08-.94 16.08-.94s-9.65-2.44-17.14-2.44c-7.5 0-8.51.27-8.51.27M2082.43 5415.37s-2.83-.64-7.01-1.02c-3.64-.35-8.64-.69-8.64-.69s4.47-2 8.14-2.63c3.67-.6 7.14-.73 7.14-.73l.37 5.07" style="fill:#231f20;fill-opacity:1;fill-rule:nonzero;stroke:none" transform="matrix(.7549 0 0 -.7549 -1396.314 4492.655)"/><path d="M2009.48 5411.87s.25-4.41-.24-6.85c-.49-2.46-1.05-5.25-1.05-5.25s10.85.84 15.98 3.05c5.15 2.2 9.58 10.76 9.58 10.76s-8.59-1.47-13.98-1.71c-5.38-.25-10.29 0-10.29 0" style="fill:#f78d11;fill-opacity:1;fill-rule:nonzero;stroke:none" transform="matrix(.7549 0 0 -.7549 -1396.314 4492.655)"/><path d="M2052.86 5159.59s5.9-50.2-2.22-61.91c-8.02-11.6-65.48-34.77-87.74-41.45-22.3-6.66-58.36-16.02-59.7-16.46-1.32-.46 121.6 43.64 139.86 68.16 10.55 14.12 9.8 51.66 9.8 51.66M2077.2 5161.51s9.89-53.55 17.83-63.48c7.94-9.93 53.36-38.07 73.41-45.63 19.42-7.36 35.74-10.95 35.74-10.95s-85.34 43.64-99.22 62.53c-15.28 20.7-27.76 57.53-27.76 57.53" style="fill:#204394;fill-opacity:1;fill-rule:nonzero;stroke:none" transform="matrix(.7549 0 0 -.7549 -1396.314 4492.655)"/><path d="M2260.69 5410.43c10.54-11.47 16.83-31.4 8.67-39.97-8.19-8.57-24.47-3.95-37.21 10.71-11.51 13.21-14.55 30.98-6.32 39.55 8.17 8.56 24.3 1.19 34.86-10.29" style="fill:#231f20;fill-opacity:1;fill-rule:nonzero;stroke:none" transform="matrix(.7549 0 0 -.7549 -1396.314 4492.655)"/><path d="M2264.8 5414.84c10.55-11.5 13.58-28.82 5.38-37.41-8.21-8.61-20.57-6.65-33.45 7.9-10.34 11.65-15.56 25.74-7.37 34.33 8.22 8.58 24.87 6.63 35.44-4.82" style="fill:#7f84c4;fill-opacity:1;fill-rule:nonzero;stroke:none" transform="matrix(.7549 0 0 -.7549 -1396.314 4492.655)"/><path d="M2238.06 5427.48c-2.43-8.62.73-22.26 7.14-27.6-7.17 1.16-10.77 8.05-13.32 15.41-.87 2.53-2.56 6.31-.9 9.03 1.42 2.28 4.74 2.28 6.77 3.22" style="fill:#231f20;fill-opacity:1;fill-rule:nonzero;stroke:none" transform="matrix(.7549 0 0 -.7549 -1396.314 4492.655)"/><path d="M2264.47 5375.79c-4.65 2.16-3.96 2.9-6.47 5.62-3.84 4.23-13.44 6.82-15.66 12.41-3.16 7.84-6.62 17.1-7.29 25.64-4.78 5.77 2.57 18.36 3.3 22.42.41 2.44 8.2 15.35 19.2 22.69 0 0 13.04 8.25 3.46 32.91 0 0-6.34 19.65 6.26 20.91 0 0 47.8-2.23 22.45-52.66 0 0 60.2-18.09 8.84-79.98 0 0-16.63-12.67-34.09-9.96" style="fill:#7f84c4;fill-opacity:1;fill-rule:nonzero;stroke:none" transform="matrix(.7549 0 0 -.7549 -1396.314 4492.655)"/><path d="M2283.25 5463.03s10.73 10.27 12.41 21.61c0 0 3.12 15.75-9.09 24.81 0 0-8.19 7.23-18.68 4.58 0 0-9.04-2.48-5.62-11.68 0 0 5.69-12.06 3.78-24.42 0 0-.45-8.32-9-16.72 0 0-12.24-9.72-15.6-17.44 0 0-7.78-13.79-6.05-28.12 0 0-10.73 15.25 5.67 37.74 0 0 5.82 7.69 11.27 12.12 0 0 6.68 5.31 7.9 14.55 0 0 1.97 10.15-2.49 20.15 0 0-5.58 11.25 4.2 18.29 0 0 10.35 9.13 28.81-4.2 0 0 15.33-12.06 9.2-31.41 0 0-2.47-15.24-16.71-19.86" style="fill:#000;fill-opacity:1;fill-rule:nonzero;stroke:none" transform="matrix(.7549 0 0 -.7549 -1396.314 4492.655)"/><path d="M2310.87 5438.97s-15.84 15.28-32.73 11.57c0 0-15.53-1.89-15.27-20.31 0 0 .2-9.73 4.61-15.25l5.32-4.22.42 7.86s-8.58 7.69-2.31 19.37c0 0 11.82 17.01 39.96.98" style="fill:#000;fill-opacity:1;fill-rule:nonzero;stroke:none" transform="matrix(.7549 0 0 -.7549 -1396.314 4492.655)"/><path d="M2311.34 5415.82s-3.44 10.21-19.32 14.14c0 0-16.39 4.7-22.11-10.25 0 0-4.31-12.41 6.98-20.22 0 0 9.54-5.35 19.02.2 0 0-14.74.5-18.85 5.65 0 0-5.91 4.85-1.75 14.16 0 0 4.76 8.71 15.25 6.11 0 0 11.8-2.48 20.78-9.79" style="fill:#000;fill-opacity:1;fill-rule:nonzero;stroke:none" transform="matrix(.7549 0 0 -.7549 -1396.314 4492.655)"/><path d="M2273.56 5377.57c18.6 1.85 32.62 19.58 32.62 19.58 13.66 18.53 11.05 38.24 11.05 38.24-2.75 18.73-20.1 25.76-20.1 25.76-16.82 6.95-25.19-6.3-25.19-6.3-5.24-8.96-.24-15.04-.24-15.04-1.37 1.08-5.34-5.11-6.17-4.01-9.66 12.72 1.91 25.2 1.91 25.2 13.85 14.06 33.54 6.05 33.54 6.05 23.09-11.05 21.92-30.35 21.92-30.35 1.37-20.1-9.35-39.76-9.35-39.76-18.56-26.98-41.46-24.17-41.46-24.17-2.8-.91 1.47 4.8 1.47 4.8" style="fill:#000;fill-opacity:1;fill-rule:nonzero;stroke:none" transform="matrix(.7549 0 0 -.7549 -1396.314 4492.655)"/><path d="M1988.15 5337.91s2.38 23.56 32.63 24.82c0 0 13.85.63 32.52-10.52 0 0 28.64-16.82 48.97-2.21 0 0-8.45-12.86-39.49-8.46 0 0-35.29 7.98-44.51 6.3 0 0-15.29.52-30.12-9.93" style="fill:#204394;fill-opacity:1;fill-rule:nonzero;stroke:none" transform="matrix(.7549 0 0 -.7549 -1396.314 4492.655)"/></svg>