<svg xmlns="http://www.w3.org/2000/svg" xml:space="preserve" width="1008.0888" height="700" viewBox="0 0 1008.0888 700.00001"><path d="M74.7 153.906c0-6.797-5.511-12.308-12.31-12.308-6.796 0-12.307 5.511-12.307 12.308 0 6.798 5.51 12.308 12.308 12.308s12.308-5.51 12.308-12.308" style="fill:#ed1838;fill-opacity:1;fill-rule:nonzero;stroke:none;stroke-width:.1" transform="matrix(6.0737 0 0 -6.0737 -14.223 1009.533)"/><path d="M2.342 149.804s7.086-2.238 6.34-8.952c-.746-6.714-1.118-15.666 5.595-17.53 0 0 .746 19.022 17.157 17.53 0 0 13.8 0 14.547-16.411 0 0 8.95 18.276-14.174 27.227 0 0-12.309 1.492-18.276-6.34 0 0-4.85 6.341-11.19 4.476" style="fill:#f9bc0a;fill-opacity:1;fill-rule:nonzero;stroke:none;stroke-width:.1" transform="matrix(6.0737 0 0 -6.0737 -14.223 1009.533)"/><path d="M45.98 124.441s-25.736-7.46-21.26-35.433c4.475-27.974 43.266-38.045 43.266-38.045S41.877 71.105 40.385 90.127c-1.492 19.021 5.596 34.314 5.596 34.314" style="fill:#f9bc0a;fill-opacity:1;fill-rule:nonzero;stroke:none;stroke-width:.1" transform="matrix(6.0737 0 0 -6.0737 -14.223 1009.533)"/><path d="M69.852 50.963s-.746 26.482 10.816 33.569c11.563 7.087 44.012-3.357 52.217 13.427 0 0-16.412-3.73-31.33 1.492-14.92 5.222-29.466-1.119-32.45-9.324-2.984-8.206-4.85-25.736.747-39.164" style="fill:#303c9b;fill-opacity:1;fill-rule:nonzero;stroke:none;stroke-width:.1" transform="matrix(6.0737 0 0 -6.0737 -14.223 1009.533)"/><path d="M69.852 50.963s-18.277 29.094-5.223 54.083c13.055 24.99 83.175-23.498 103.689 35.433 0 0-18.276-15.665-51.845-9.324-33.568 6.34-52.963 5.967-62.288-12.682-9.324-18.649-9.697-39.909 15.667-67.51" style="fill:#303c9b;fill-opacity:1;fill-rule:nonzero;stroke:none;stroke-width:.1" transform="matrix(6.0737 0 0 -6.0737 -14.223 1009.533)"/></svg>